<mxfile host="app.diagrams.net" modified="2023-11-12T11:26:41.146Z" agent="Mozilla/5.0 (X11; Linux x86_64) AppleWebKit/537.36 (KHTML, like Gecko) Chrome/119.0.0.0 Safari/537.36" version="22.1.0" etag="X_PfNf51pTUt-QOaaSjK" type="github">
  <diagram name="Page-1" id="wID_Gu8osTlpVviuVL3m">
    <mxGraphModel>
      <root>
        <mxCell id="0" />
        <mxCell id="1" parent="0" />
      </root>
    </mxGraphModel>
  </diagram>
</mxfile>
